<svg xmlns="http://www.w3.org/2000/svg" height="800" width="1200" viewBox="-44.7 -13.59775 387.4 81.5865"><path d="M71.3074 48.9423c-3.3956 0-4.9211-.7972-4.9211-4.8301V10.55c0-4.0132 1.2795-4.5152 4.675-4.5152h2.1408v-4.146H51.0323v4.146h2.3867c3.1742 0 4.6505 1.0851 4.6505 4.5152v33.5622c0 3.4226-1.8454 4.83-5.0195 4.83h-2.1407v4.1388h22.4404v-4.1387zm75.1456 0c-3.3955 0-4.921-.7972-4.921-4.8301V10.55c0-4.0132 1.2794-4.5152 4.675-4.5152h2.1653v-4.146h-22.1697v4.146h2.3621c3.1742 0 4.6259 1.0851 4.6259 4.5152v33.5622c0 3.4226-1.8454 4.83-4.9704 4.83h-2.1653v4.1388h22.4405v-4.1387zM78.0491 1.8887v13.4889h3.8385v-2.81c0-3.3956 1.2303-6.5328 5.8316-6.5328h7.8246v38.0774c0 3.4226-2.0423 4.83-5.2164 4.83h-2.313v4.1388H111.39v-4.1387h-2.313c-3.1495 0-5.1917-1.4075-5.1917-4.8301V6.0348h7.8c4.6012 0 5.8315 3.1372 5.8315 6.5328v2.81h3.8385V1.8887zM190.497 39.1866v.9055c0 4.2519-1.181 8.8507-10.2605 8.8507h-15.7477l29.3055-42.91V1.8892h-38.7049v13.8604h3.9124v-1.6978c0-4.3675 2.0176-8.019 7.9476-8.019 3.5924 0 16.4366.0419 16.4366.0419l-29.207 42.868v4.1363h40.1566V39.1866zm47.4158-.0674v1.368c0 4.5644-2.239 8.4546-7.8984 8.4546H214.808V28.8856h9.1534c3.6908 0 4.5274 3.1127 4.5274 5.3149v2.1308h4.0108v-19.19h-4.0108v1.7077c0 2.1899-.8366 5.305-4.5274 5.305h-9.1534V6.0343h14.5174c7.2587 0 7.431 6.0629 7.431 8.3118v1.1048h3.863V1.8882H199.897v4.1461h.9104c3.5186 0 5.3394.4281 5.3394 3.6023V44.712c0 3.6884-2.436 4.2297-4.6997 4.2297h-1.304v4.1387h41.436V39.1192zm41.8544-37.2305v4.1461h1.1564c4.0354 0 5.4871 1.373 5.4871 4.8498v28.3975L260.7961 1.8887h-13.4347v4.1461h1.2549c2.4852 0 4.429 1.0113 4.429 4.9507v33.4933c0 3.3931-2.436 4.4635-4.306 4.4635h-1.7224v4.1387h17.4455v-4.1387h-1.6486c-1.87 0-4.675-.4774-4.675-4.4635V13.1926l27.3615 39.8884h5.9792V10.8846c0-3.4768 1.4271-4.8498 5.4625-4.8498H298v-4.146zM28.4688 50.3433c-10.1867 0-18.2574-9.707-18.2574-22.844 0-14.2393 5.807-23.4541 17.2732-23.4541 9.4978 0 13.2625 4.8793 14.7388 10.9643h3.617c-.4428-3.6121-1.0826-9.9013-1.0334-11.299C41.633 3.0413 35.7275 0 26.894 0 11.2695 0 0 10.6887 0 27.4994 0 43.931 13.0164 54.391 26.7464 54.391c6.3483 0 12.6474-1.4838 17.9622-5.4477.246-1.3164 1.1319-5.1599 2.0423-8.2577h-3.9615c-2.9527 7.0126-8.4152 9.6577-14.3206 9.6577"/></svg>